<mxfile host="app.diagrams.net" modified="2022-03-10T09:06:42.859Z" agent="5.0 (Windows NT 10.0; Win64; x64) AppleWebKit/537.36 (KHTML, like Gecko) Chrome/99.0.4844.51 Safari/537.36" etag="z8a97JmWu5wj-cpOKF8O" version="16.4.3" type="github">
  <diagram id="4LYyG6q3YgmMvTT7CwR-" name="Page-1">
    <mxGraphModel dx="2234" dy="1246" grid="1" gridSize="10" guides="1" tooltips="1" connect="1" arrows="1" fold="1" page="1" pageScale="1" pageWidth="827" pageHeight="1169" math="0" shadow="0">
      <root>
        <mxCell id="0" />
        <mxCell id="1" parent="0" />
        <mxCell id="w-JqTP9xmoRsm-LmLa4k-4" value="" style="rounded=1;whiteSpace=wrap;html=1;fontSize=12;verticalAlign=middle;fillColor=#dae8fc;strokeColor=#6c8ebf;" vertex="1" parent="1">
          <mxGeometry x="300" y="430" width="550" height="390" as="geometry" />
        </mxCell>
        <mxCell id="w-JqTP9xmoRsm-LmLa4k-5" value="表单对象档案" style="rounded=1;whiteSpace=wrap;html=1;fillColor=#e1d5e7;strokeColor=#9673a6;horizontal=1;verticalAlign=top;" vertex="1" parent="1">
          <mxGeometry x="330" y="520" width="190" height="180" as="geometry" />
        </mxCell>
        <mxCell id="w-JqTP9xmoRsm-LmLa4k-6" style="edgeStyle=orthogonalEdgeStyle;rounded=0;orthogonalLoop=1;jettySize=auto;html=1;exitX=0.5;exitY=0;exitDx=0;exitDy=0;entryX=0.5;entryY=0;entryDx=0;entryDy=0;fontSize=12;strokeColor=#000000;" edge="1" parent="1" source="w-JqTP9xmoRsm-LmLa4k-8" target="w-JqTP9xmoRsm-LmLa4k-5">
          <mxGeometry relative="1" as="geometry">
            <Array as="points">
              <mxPoint x="725" y="470" />
              <mxPoint x="425" y="470" />
            </Array>
          </mxGeometry>
        </mxCell>
        <mxCell id="w-JqTP9xmoRsm-LmLa4k-7" value="配置所需控制的字段" style="edgeLabel;html=1;align=center;verticalAlign=middle;resizable=0;points=[];fontSize=14;labelBackgroundColor=#dae8fc;" vertex="1" connectable="0" parent="w-JqTP9xmoRsm-LmLa4k-6">
          <mxGeometry x="-0.1483" y="-1" relative="1" as="geometry">
            <mxPoint x="-30" as="offset" />
          </mxGeometry>
        </mxCell>
        <mxCell id="w-JqTP9xmoRsm-LmLa4k-8" value="菜单配置" style="rounded=1;whiteSpace=wrap;html=1;fillColor=#e1d5e7;strokeColor=#9673a6;horizontal=1;verticalAlign=top;" vertex="1" parent="1">
          <mxGeometry x="630" y="520" width="190" height="180" as="geometry" />
        </mxCell>
        <mxCell id="w-JqTP9xmoRsm-LmLa4k-9" value="ORDER&lt;br&gt;" style="rounded=0;whiteSpace=wrap;html=1;verticalAlign=middle;fillColor=#fff2cc;strokeColor=#d6b656;" vertex="1" parent="1">
          <mxGeometry x="365" y="550" width="120" height="20" as="geometry" />
        </mxCell>
        <mxCell id="w-JqTP9xmoRsm-LmLa4k-10" value="PRICING&lt;br&gt;" style="rounded=0;whiteSpace=wrap;html=1;verticalAlign=middle;fillColor=#fff2cc;strokeColor=#d6b656;" vertex="1" parent="1">
          <mxGeometry x="365" y="570" width="120" height="20" as="geometry" />
        </mxCell>
        <mxCell id="w-JqTP9xmoRsm-LmLa4k-11" value="......." style="rounded=0;whiteSpace=wrap;html=1;verticalAlign=middle;fillColor=#fff2cc;strokeColor=#d6b656;" vertex="1" parent="1">
          <mxGeometry x="365" y="590" width="120" height="20" as="geometry" />
        </mxCell>
        <mxCell id="w-JqTP9xmoRsm-LmLa4k-12" value="Index-Home" style="rounded=0;whiteSpace=wrap;html=1;verticalAlign=middle;fillColor=#fff2cc;strokeColor=#d6b656;" vertex="1" parent="1">
          <mxGeometry x="365" y="625" width="120" height="20" as="geometry" />
        </mxCell>
        <mxCell id="w-JqTP9xmoRsm-LmLa4k-13" value="Common-Pupup-1" style="rounded=0;whiteSpace=wrap;html=1;verticalAlign=middle;fillColor=#fff2cc;strokeColor=#d6b656;" vertex="1" parent="1">
          <mxGeometry x="365" y="645" width="120" height="20" as="geometry" />
        </mxCell>
        <mxCell id="w-JqTP9xmoRsm-LmLa4k-14" value="Common-Pupup-2" style="rounded=0;whiteSpace=wrap;html=1;verticalAlign=middle;fillColor=#fff2cc;strokeColor=#d6b656;" vertex="1" parent="1">
          <mxGeometry x="365" y="665" width="120" height="20" as="geometry" />
        </mxCell>
        <mxCell id="w-JqTP9xmoRsm-LmLa4k-15" style="edgeStyle=orthogonalEdgeStyle;rounded=0;orthogonalLoop=1;jettySize=auto;html=1;exitX=0;exitY=0.5;exitDx=0;exitDy=0;entryX=1;entryY=0.5;entryDx=0;entryDy=0;fontSize=12;fontColor=#B266FF;strokeColor=#000000;dashed=1;" edge="1" parent="1" source="w-JqTP9xmoRsm-LmLa4k-16" target="w-JqTP9xmoRsm-LmLa4k-9">
          <mxGeometry relative="1" as="geometry" />
        </mxCell>
        <mxCell id="w-JqTP9xmoRsm-LmLa4k-16" value="ORDER&lt;br&gt;" style="rounded=0;whiteSpace=wrap;html=1;verticalAlign=middle;fillColor=#fff2cc;strokeColor=#d6b656;" vertex="1" parent="1">
          <mxGeometry x="665" y="550" width="125" height="20" as="geometry" />
        </mxCell>
        <mxCell id="w-JqTP9xmoRsm-LmLa4k-17" value="PRICING&lt;br&gt;" style="rounded=0;whiteSpace=wrap;html=1;verticalAlign=middle;fillColor=#fff2cc;strokeColor=#d6b656;" vertex="1" parent="1">
          <mxGeometry x="665" y="570" width="125" height="20" as="geometry" />
        </mxCell>
        <mxCell id="w-JqTP9xmoRsm-LmLa4k-18" value="......." style="rounded=0;whiteSpace=wrap;html=1;verticalAlign=middle;fillColor=#fff2cc;strokeColor=#d6b656;" vertex="1" parent="1">
          <mxGeometry x="665" y="590" width="125" height="20" as="geometry" />
        </mxCell>
        <mxCell id="w-JqTP9xmoRsm-LmLa4k-19" value="ONLY_PERMISSION" style="rounded=0;whiteSpace=wrap;html=1;verticalAlign=top;fillColor=#fff2cc;strokeColor=#d6b656;" vertex="1" parent="1">
          <mxGeometry x="665" y="625" width="125" height="65" as="geometry" />
        </mxCell>
        <mxCell id="w-JqTP9xmoRsm-LmLa4k-20" style="edgeStyle=orthogonalEdgeStyle;rounded=0;orthogonalLoop=1;jettySize=auto;html=1;exitX=0;exitY=0.5;exitDx=0;exitDy=0;entryX=1;entryY=0.5;entryDx=0;entryDy=0;fontSize=12;fontColor=#B266FF;strokeColor=#000000;dashed=1;" edge="1" parent="1">
          <mxGeometry relative="1" as="geometry">
            <mxPoint x="665" y="579.5" as="sourcePoint" />
            <mxPoint x="485" y="579.5" as="targetPoint" />
          </mxGeometry>
        </mxCell>
        <mxCell id="w-JqTP9xmoRsm-LmLa4k-21" style="edgeStyle=orthogonalEdgeStyle;rounded=0;orthogonalLoop=1;jettySize=auto;html=1;exitX=0;exitY=0.5;exitDx=0;exitDy=0;entryX=1;entryY=0.5;entryDx=0;entryDy=0;fontSize=12;fontColor=#B266FF;strokeColor=#000000;dashed=1;" edge="1" parent="1">
          <mxGeometry relative="1" as="geometry">
            <mxPoint x="665" y="599.5" as="sourcePoint" />
            <mxPoint x="485" y="599.5" as="targetPoint" />
          </mxGeometry>
        </mxCell>
        <mxCell id="w-JqTP9xmoRsm-LmLa4k-22" style="edgeStyle=orthogonalEdgeStyle;rounded=0;orthogonalLoop=1;jettySize=auto;html=1;exitX=0;exitY=0.5;exitDx=0;exitDy=0;entryX=1;entryY=0.5;entryDx=0;entryDy=0;fontSize=12;fontColor=#B266FF;strokeColor=#000000;dashed=1;" edge="1" parent="1">
          <mxGeometry relative="1" as="geometry">
            <mxPoint x="665" y="634.5" as="sourcePoint" />
            <mxPoint x="485" y="634.5" as="targetPoint" />
          </mxGeometry>
        </mxCell>
        <mxCell id="w-JqTP9xmoRsm-LmLa4k-23" style="edgeStyle=orthogonalEdgeStyle;rounded=0;orthogonalLoop=1;jettySize=auto;html=1;exitX=0;exitY=0.5;exitDx=0;exitDy=0;entryX=1;entryY=0.5;entryDx=0;entryDy=0;fontSize=12;fontColor=#B266FF;strokeColor=#000000;dashed=1;" edge="1" parent="1">
          <mxGeometry relative="1" as="geometry">
            <mxPoint x="665" y="674.5" as="sourcePoint" />
            <mxPoint x="485" y="674.5" as="targetPoint" />
          </mxGeometry>
        </mxCell>
        <mxCell id="w-JqTP9xmoRsm-LmLa4k-24" style="edgeStyle=orthogonalEdgeStyle;rounded=0;orthogonalLoop=1;jettySize=auto;html=1;exitX=1;exitY=0.5;exitDx=0;exitDy=0;fontSize=12;fontColor=#B266FF;strokeColor=#000000;" edge="1" parent="1" source="w-JqTP9xmoRsm-LmLa4k-28">
          <mxGeometry relative="1" as="geometry">
            <mxPoint x="725" y="700" as="targetPoint" />
          </mxGeometry>
        </mxCell>
        <mxCell id="w-JqTP9xmoRsm-LmLa4k-25" value="选择菜单" style="edgeLabel;html=1;align=center;verticalAlign=middle;resizable=0;points=[];fontSize=14;fontColor=#000000;labelBackgroundColor=#dae8fc;" vertex="1" connectable="0" parent="w-JqTP9xmoRsm-LmLa4k-24">
          <mxGeometry x="0.1511" relative="1" as="geometry">
            <mxPoint y="-19" as="offset" />
          </mxGeometry>
        </mxCell>
        <mxCell id="w-JqTP9xmoRsm-LmLa4k-26" style="edgeStyle=orthogonalEdgeStyle;rounded=0;orthogonalLoop=1;jettySize=auto;html=1;exitX=0;exitY=0.5;exitDx=0;exitDy=0;fontSize=12;fontColor=#B266FF;strokeColor=#000000;" edge="1" parent="1" source="w-JqTP9xmoRsm-LmLa4k-28">
          <mxGeometry relative="1" as="geometry">
            <mxPoint x="425" y="700" as="targetPoint" />
          </mxGeometry>
        </mxCell>
        <mxCell id="w-JqTP9xmoRsm-LmLa4k-27" value="配置字段显示" style="edgeLabel;html=1;align=center;verticalAlign=middle;resizable=0;points=[];fontSize=14;fontColor=#000000;labelBackgroundColor=#dae8fc;" vertex="1" connectable="0" parent="w-JqTP9xmoRsm-LmLa4k-26">
          <mxGeometry x="0.2844" relative="1" as="geometry">
            <mxPoint y="-9" as="offset" />
          </mxGeometry>
        </mxCell>
        <mxCell id="w-JqTP9xmoRsm-LmLa4k-28" value="角色" style="rounded=1;whiteSpace=wrap;html=1;fontSize=14;verticalAlign=middle;fillColor=#e1d5e7;strokeColor=#9673a6;" vertex="1" parent="1">
          <mxGeometry x="495" y="720" width="160" height="90" as="geometry" />
        </mxCell>
        <mxCell id="w-JqTP9xmoRsm-LmLa4k-29" value="前端页面" style="rounded=1;whiteSpace=wrap;html=1;fontSize=12;verticalAlign=top;fillColor=#d5e8d4;strokeColor=#82b366;" vertex="1" parent="1">
          <mxGeometry x="1010" y="430" width="390" height="280" as="geometry" />
        </mxCell>
        <mxCell id="w-JqTP9xmoRsm-LmLa4k-31" value="&lt;span style=&quot;background-color: rgb(255 , 230 , 204)&quot;&gt;左侧菜单&lt;/span&gt;" style="rounded=0;whiteSpace=wrap;html=1;labelBackgroundColor=#dae8fc;fontSize=14;verticalAlign=middle;fillColor=#ffe6cc;strokeColor=#d79b00;" vertex="1" parent="1">
          <mxGeometry x="1030" y="470" width="120" height="220" as="geometry" />
        </mxCell>
        <mxCell id="w-JqTP9xmoRsm-LmLa4k-32" value="&lt;span style=&quot;background-color: rgb(255 , 230 , 204)&quot;&gt;列表+表单+弹窗&lt;/span&gt;" style="rounded=0;whiteSpace=wrap;html=1;labelBackgroundColor=#dae8fc;fontSize=14;verticalAlign=middle;fillColor=#ffe6cc;strokeColor=#d79b00;" vertex="1" parent="1">
          <mxGeometry x="1170" y="470" width="210" height="220" as="geometry" />
        </mxCell>
        <mxCell id="w-JqTP9xmoRsm-LmLa4k-33" style="edgeStyle=orthogonalEdgeStyle;rounded=0;orthogonalLoop=1;jettySize=auto;html=1;exitX=1.006;exitY=0.816;exitDx=0;exitDy=0;fontSize=14;fontColor=#000000;strokeColor=#000000;strokeWidth=1;entryX=0.592;entryY=0.997;entryDx=0;entryDy=0;entryPerimeter=0;exitPerimeter=0;" edge="1" parent="1" source="w-JqTP9xmoRsm-LmLa4k-4">
          <mxGeometry relative="1" as="geometry">
            <mxPoint x="891" y="749.5" as="sourcePoint" />
            <mxPoint x="1295.3200000000002" y="690.3399999999999" as="targetPoint" />
            <Array as="points">
              <mxPoint x="853" y="750" />
              <mxPoint x="1295" y="750" />
            </Array>
          </mxGeometry>
        </mxCell>
        <mxCell id="w-JqTP9xmoRsm-LmLa4k-34" value="根据权限展示具体字段" style="edgeLabel;html=1;align=center;verticalAlign=middle;resizable=0;points=[];fontSize=14;fontColor=#000000;" vertex="1" connectable="0" parent="w-JqTP9xmoRsm-LmLa4k-33">
          <mxGeometry x="-0.2336" y="-2" relative="1" as="geometry">
            <mxPoint as="offset" />
          </mxGeometry>
        </mxCell>
        <mxCell id="w-JqTP9xmoRsm-LmLa4k-35" style="edgeStyle=orthogonalEdgeStyle;rounded=0;orthogonalLoop=1;jettySize=auto;html=1;exitX=1;exitY=0.25;exitDx=0;exitDy=0;fontSize=14;fontColor=#000000;strokeColor=#000000;strokeWidth=1;entryX=-0.019;entryY=0.157;entryDx=0;entryDy=0;entryPerimeter=0;" edge="1" parent="1" target="w-JqTP9xmoRsm-LmLa4k-31">
          <mxGeometry relative="1" as="geometry">
            <mxPoint x="990" y="510" as="targetPoint" />
            <mxPoint x="850" y="510.5" as="sourcePoint" />
            <Array as="points">
              <mxPoint x="850" y="505" />
            </Array>
          </mxGeometry>
        </mxCell>
        <mxCell id="w-JqTP9xmoRsm-LmLa4k-36" value="根据权限展示菜单" style="edgeLabel;html=1;align=center;verticalAlign=middle;resizable=0;points=[];fontSize=14;fontColor=#000000;" vertex="1" connectable="0" parent="w-JqTP9xmoRsm-LmLa4k-35">
          <mxGeometry x="-0.1415" y="1" relative="1" as="geometry">
            <mxPoint x="6" as="offset" />
          </mxGeometry>
        </mxCell>
        <mxCell id="w-JqTP9xmoRsm-LmLa4k-37" value="仅做权限配置不做菜单展示" style="text;html=1;strokeColor=none;fillColor=none;align=center;verticalAlign=middle;whiteSpace=wrap;rounded=0;labelBackgroundColor=#ffe6cc;fontSize=14;fontColor=#999999;" vertex="1" parent="1">
          <mxGeometry x="680" y="660" width="90" height="25" as="geometry" />
        </mxCell>
      </root>
    </mxGraphModel>
  </diagram>
</mxfile>
